<svg width="21" height="21" viewBox="0 0 21 21" fill="none" xmlns="http://www.w3.org/2000/svg">
<path d="M20.2099 19.29L16.4999 15.61C17.94 13.8144 18.6374 11.5353 18.4487 9.2413C18.26 6.9473 17.1996 4.81278 15.4854 3.27664C13.7713 1.7405 11.5337 0.919506 9.23283 0.982466C6.93194 1.04543 4.74263 1.98756 3.11505 3.61514C1.48747 5.24272 0.545335 7.43203 0.482375 9.73292C0.419414 12.0338 1.24041 14.2714 2.77655 15.9855C4.31269 17.6997 6.44721 18.7601 8.7412 18.9488C11.0352 19.1375 13.3143 18.4401 15.1099 17L18.7899 20.68C18.8829 20.7737 18.9935 20.8481 19.1153 20.8989C19.2372 20.9497 19.3679 20.9758 19.4999 20.9758C19.6319 20.9758 19.7626 20.9497 19.8845 20.8989C20.0063 20.8481 20.1169 20.7737 20.2099 20.68C20.3901 20.4935 20.4909 20.2443 20.4909 19.985C20.4909 19.7257 20.3901 19.4765 20.2099 19.29ZM9.4999 17C8.11544 17 6.76206 16.5895 5.61091 15.8203C4.45977 15.0511 3.56256 13.9579 3.03275 12.6788C2.50293 11.3997 2.36431 9.99223 2.63441 8.63436C2.9045 7.2765 3.57119 6.02922 4.55016 5.05025C5.52912 4.07128 6.77641 3.4046 8.13427 3.1345C9.49214 2.8644 10.8996 3.00303 12.1787 3.53284C13.4578 4.06265 14.551 4.95986 15.3202 6.111C16.0894 7.26215 16.4999 8.61553 16.4999 10C16.4999 11.8565 15.7624 13.637 14.4497 14.9497C13.1369 16.2625 11.3564 17 9.4999 17Z" fill="#333333"/>
</svg>
