<svg width="169" height="60" viewBox="0 0 169 60" fill="none" xmlns="http://www.w3.org/2000/svg">
<path d="M37.5 29.8825V6.55C37.5 5.8737 37.2366 5.2251 36.7678 4.74688C36.2989 4.26866 35.663 4 35 4C34.337 4 33.7011 4.26866 33.2322 4.74688C32.7634 5.2251 32.5 5.8737 32.5 6.55V29.8825C30.3349 30.5237 28.4327 31.8652 27.08 33.7049C25.7273 35.5446 24.9973 37.7829 25 40.0825C25 45.31 28.8 54.8725 35 54.8725C41.2 54.8725 45 45.31 45 40.0825C45.0027 37.7829 44.2727 35.5446 42.92 33.7049C41.5673 31.8652 39.6651 30.5237 37.5 29.8825ZM35 49.9C33 49.9 30 44.1115 30 40.21C29.9388 38.7911 30.4301 37.4051 31.3667 36.3541C32.3034 35.3032 33.6094 34.6727 35 34.6C36.3906 34.6727 37.6966 35.3032 38.6333 36.3541C39.5699 37.4051 40.0612 38.7911 40 40.21C40 44.1115 37 49.9 35 49.9ZM17.5 4C16.837 4 16.2011 4.26866 15.7322 4.74688C15.2634 5.2251 15 5.8737 15 6.55V20.473L12.5 22.1815V6.55C12.5 5.8737 12.2366 5.2251 11.7678 4.74688C11.2989 4.26866 10.663 4 10 4C9.33696 4 8.70107 4.26866 8.23223 4.74688C7.76339 5.2251 7.5 5.8737 7.5 6.55V22.1815L5 20.473V6.55C5 5.8737 4.73661 5.2251 4.26777 4.74688C3.79892 4.26866 3.16304 4 2.5 4C1.83696 4 1.20107 4.26866 0.732233 4.74688C0.263392 5.2251 0 5.8737 0 6.55V21.85C0.0021303 22.27 0.105938 22.683 0.302199 23.0522C0.49846 23.4214 0.781098 23.7355 1.125 23.9665L7.5 28.327V52.45C7.5 53.1263 7.76339 53.7749 8.23223 54.2531C8.70107 54.7313 9.33696 55 10 55C10.663 55 11.2989 54.7313 11.7678 54.2531C12.2366 53.7749 12.5 53.1263 12.5 52.45V28.327L18.875 23.9665C19.2189 23.7355 19.5015 23.4214 19.6978 23.0522C19.8941 22.683 19.9979 22.27 20 21.85V6.55C20 5.8737 19.7366 5.2251 19.2678 4.74688C18.7989 4.26866 18.163 4 17.5 4Z" fill="#333333"/>
<path d="M78.2112 32.64C77.7415 32.64 77.2823 32.7793 76.8918 33.0403C76.5012 33.3012 76.1968 33.6722 76.017 34.1061C75.8373 34.5401 75.7902 35.0176 75.8819 35.4783C75.9735 35.939 76.1997 36.3622 76.5319 36.6944C76.864 37.0265 77.2872 37.2527 77.7479 37.3444C78.2086 37.436 78.6861 37.389 79.1201 37.2092C79.5541 37.0295 79.925 36.725 80.186 36.3345C80.447 35.9439 80.5862 35.4847 80.5862 35.015C80.5862 34.3851 80.336 33.781 79.8906 33.3356C79.4452 32.8902 78.8411 32.64 78.2112 32.64ZM78.2112 22C77.7415 22 77.2823 22.1393 76.8918 22.4003C76.5012 22.6612 76.1968 23.0322 76.017 23.4661C75.8373 23.9001 75.7902 24.3776 75.8819 24.8383C75.9735 25.299 76.1997 25.7222 76.5319 26.0544C76.864 26.3865 77.2872 26.6127 77.7479 26.7044C78.2086 26.796 78.6861 26.749 79.1201 26.5692C79.5541 26.3895 79.925 26.085 80.186 25.6945C80.447 25.3039 80.5862 24.8447 80.5862 24.375C80.5862 23.7451 80.336 23.141 79.8906 22.6956C79.4452 22.2502 78.8411 22 78.2112 22ZM86.5 26.75C85.8701 26.75 85.266 27.0002 84.8206 27.4456C84.3752 27.891 84.125 28.4951 84.125 29.125V31.5C84.125 32.1299 84.3752 32.734 84.8206 33.1794C85.266 33.6248 85.8701 33.875 86.5 33.875C87.1299 33.875 87.734 33.6248 88.1794 33.1794C88.6248 32.734 88.875 32.1299 88.875 31.5V29.125C88.875 28.4951 88.6248 27.891 88.1794 27.4456C87.734 27.0002 87.1299 26.75 86.5 26.75ZM106.687 23.3537C105.868 22.8823 104.963 22.5787 104.025 22.4604C103.088 22.3422 102.136 22.4117 101.225 22.665C100.277 22.9189 99.3946 23.3723 98.6362 23.995L71.0862 8.05875C70.7252 7.8503 70.3156 7.74056 69.8987 7.74056C69.4818 7.74056 69.0723 7.8503 68.7112 8.05875C68.3444 8.26496 68.0389 8.56495 67.8261 8.92801C67.6133 9.29107 67.5007 9.70416 67.5 10.125V41.4037C66.0984 41.8765 64.8832 42.7822 64.0295 43.9901C63.1758 45.1981 62.7278 46.646 62.75 48.125C62.7493 49.9822 63.4739 51.7663 64.7692 53.0971C66.0646 54.428 67.8285 55.2005 69.685 55.25H71.0625C78.8447 55.2317 86.4836 53.1545 93.2035 49.2294C99.9234 45.3042 105.485 39.6709 109.324 32.9012C110.21 31.2815 110.433 29.3808 109.946 27.5998C109.459 25.8187 108.299 24.2964 106.711 23.3537H106.687ZM72.25 14.2337L95.7387 27.795C93.1329 31.6834 89.6492 34.9045 85.569 37.1984C81.4887 39.4922 76.9263 40.7945 72.25 41V14.2337ZM105.191 30.5737C101.665 36.786 96.5163 41.9221 90.2952 45.4322C84.0741 48.9423 77.0154 50.6941 69.875 50.5C69.2451 50.5 68.641 50.2498 68.1956 49.8044C67.7502 49.359 67.5 48.7549 67.5 48.125C67.4981 47.8068 67.5603 47.4914 67.6826 47.1977C67.805 46.9039 67.9852 46.6378 68.2125 46.415C68.6587 45.9849 69.2553 45.7463 69.875 45.75H71.0862C77.1846 45.7475 83.1729 44.1257 88.439 41.0503C93.7051 37.975 98.06 33.5564 101.059 28.2462C101.203 27.9857 101.4 27.7582 101.637 27.5783C101.874 27.3983 102.147 27.2699 102.436 27.2012C103.035 27.0369 103.675 27.1136 104.217 27.415C104.762 27.7079 105.172 28.2018 105.358 28.7918C105.544 29.3817 105.493 30.021 105.215 30.5737H105.191Z" fill="#333333"/>
<path d="M160.36 11.25C157.975 8.85872 154.813 7.39922 151.446 7.13513C148.079 6.87105 144.729 7.8198 142 9.81C139.137 7.68068 135.574 6.71515 132.028 7.10783C128.482 7.50052 125.216 9.22225 122.888 11.9263C120.561 14.6304 119.344 18.1159 119.484 21.681C119.623 25.2461 121.108 28.626 123.64 31.14L137.613 45.135C138.783 46.2865 140.358 46.9319 142 46.9319C143.642 46.9319 145.217 46.2865 146.387 45.135L160.36 31.14C162.987 28.4968 164.462 24.9216 164.462 21.195C164.462 17.4684 162.987 13.8932 160.36 11.25ZM157.187 28.035L143.215 42.0075C143.056 42.168 142.867 42.2955 142.658 42.3825C142.45 42.4694 142.226 42.5142 142 42.5142C141.774 42.5142 141.55 42.4694 141.342 42.3825C141.133 42.2955 140.944 42.168 140.785 42.0075L126.813 27.9675C125.048 26.1638 124.06 23.7408 124.06 21.2175C124.06 18.6942 125.048 16.2712 126.813 14.4675C128.611 12.6922 131.036 11.6968 133.562 11.6968C136.089 11.6968 138.514 12.6922 140.312 14.4675C140.522 14.6784 140.771 14.8458 141.045 14.96C141.319 15.0742 141.613 15.133 141.91 15.133C142.207 15.133 142.501 15.0742 142.775 14.96C143.049 14.8458 143.298 14.6784 143.507 14.4675C145.306 12.6922 147.731 11.6968 150.257 11.6968C152.784 11.6968 155.209 12.6922 157.007 14.4675C158.796 16.2476 159.817 18.6574 159.85 21.1808C159.884 23.7042 158.928 26.1404 157.187 27.9675V28.035Z" fill="#333333"/>
</svg>
